<svg xmlns="http://www.w3.org/2000/svg" width="1345" height="212" viewBox="0 0 1345 212">
  <defs>
    <style>
      .cls-1 {
        fill: #fff;
        fill-rule: evenodd;
      }

      .cls-2 {
        fill: #29ff2f;
        stroke: #1c8521;
        stroke-width: 23px;
      }
    </style>
  </defs>
  <path id="T.E.A.M_DAO" data-name="T.E.A.M DAO" class="cls-1" d="M314.97,194.788l0.269-.539a0.789,0.789,0,0,1,.266-0.539V114.777a1.849,1.849,0,0,0-.535-1.347l-5.06-4.58a1.6,1.6,0,0,0-2.4,0l-14.644,14.817a1.833,1.833,0,0,0-.535,1.347v58.728a1.825,1.825,0,0,0,.535,1.347l14.644,14.817q1.06,1.345,2.4,0Zm0-93.481a1.843,1.843,0,0,0,.535-1.347V42.578a1.659,1.659,0,0,0-1.865-1.886H294.2a1.658,1.658,0,0,0-1.865,1.886V90.261a1.827,1.827,0,0,0,.535,1.347l14.644,14.817q1.06,1.352,2.4,0ZM352.681,14.83H255.968a1.551,1.551,0,0,0-1.078.539l-4.849,4.58a1.68,1.68,0,0,0,0,2.694L264.858,37.46a1.815,1.815,0,0,0,1.347.539h75.97a1.821,1.821,0,0,0,1.347-.539l14.817-14.817a1.686,1.686,0,0,0,0-2.694Zm20.474,162.447a1.679,1.679,0,0,0-1.886,1.911v19.371a1.666,1.666,0,0,0,1.886,1.886h19.666q1.617,0,1.616-1.886V179.188c0-1.271-.538-1.911-1.616-1.911H373.155ZM511.084,17.756a1.731,1.731,0,0,0,.538-2.13,1.941,1.941,0,0,0-1.885-1.065H421.374a1.934,1.934,0,0,0-1.886,1.065,1.72,1.72,0,0,0,.539,2.13l19.666,19.439a1.828,1.828,0,0,0,1.347.535h49.031a1.836,1.836,0,0,0,1.347-.535ZM437.538,40.962A1.849,1.849,0,0,0,437,39.615L417.565,19.949a1.733,1.733,0,0,0-2.13-.539A1.934,1.934,0,0,0,414.37,21.3V99.96a1.83,1.83,0,0,0,.534,1.347l5.06,5.118a1.647,1.647,0,0,0,2.66,0L437,91.608a1.843,1.843,0,0,0,.535-1.347v-49.3Zm56.574,55.5a1.839,1.839,0,0,0-1.347-.539H438.346a1.831,1.831,0,0,0-1.347.539l-9.7,9.7a1.68,1.68,0,0,0,0,2.694l9.7,9.7a1.815,1.815,0,0,0,1.347.539h54.419a1.823,1.823,0,0,0,1.347-.539l9.7-9.7a1.686,1.686,0,0,0,0-2.694Zm-56.574,28.286A1.851,1.851,0,0,0,437,123.4L422.624,108.58a1.652,1.652,0,0,0-2.66,0l-5.06,4.85a1.836,1.836,0,0,0-.534,1.347V193.71a1.666,1.666,0,0,0,1.065,1.751,1.928,1.928,0,0,0,2.13-.673l19.973-20.205V124.744Zm72.2,75.7a1.935,1.935,0,0,0,1.885-1.065,1.733,1.733,0,0,0-.538-2.13l-19.666-19.439a1.854,1.854,0,0,0-1.347-.534H441.04a1.846,1.846,0,0,0-1.347.534L420.027,197.25a1.722,1.722,0,0,0-.539,2.13,1.928,1.928,0,0,0,1.886,1.065h88.363Zm16.968-23.168a1.679,1.679,0,0,0-1.886,1.911v19.371a1.666,1.666,0,0,0,1.886,1.886h19.666q1.617,0,1.617-1.886V179.188c0-1.271-.539-1.911-1.617-1.911H526.705ZM666.52,199.906a1.763,1.763,0,0,0,2.155.539,1.931,1.931,0,0,0,1.077-1.886V115.046a1.84,1.84,0,0,0-.538-1.347l-4.85-4.849a1.633,1.633,0,0,0-2.424,0l-14.817,14.817a1.821,1.821,0,0,0-.539,1.347v54.149c0,0.719.177,1.077,0.539,1.077Zm3.232-178.341a1.938,1.938,0,0,0-1.077-1.886,1.764,1.764,0,0,0-2.155.539l-19.4,19.666a1.821,1.821,0,0,0-.539,1.347v49.3a1.815,1.815,0,0,0,.539,1.347l14.817,14.547q1.072,1.352,2.424,0l4.85-4.849a1.833,1.833,0,0,0,.538-1.347V21.565Zm-5.388-3.54a1.931,1.931,0,0,0,.674-2.13,1.675,1.675,0,0,0-1.751-1.065h-88.9A1.934,1.934,0,0,0,572.5,15.9a1.72,1.72,0,0,0,.539,2.13l19.935,19.439a1.827,1.827,0,0,0,1.347.535h49.03a1.834,1.834,0,0,0,1.347-.535ZM591.088,41.231a1.84,1.84,0,0,0-.538-1.347L570.884,20.218a1.61,1.61,0,0,0-2.021-.539,1.987,1.987,0,0,0-.943,1.886v78.664a1.815,1.815,0,0,0,.539,1.347l4.58,4.849a1.68,1.68,0,0,0,2.694,0L590.55,91.878a1.833,1.833,0,0,0,.538-1.347v-49.3Zm66,68.006a1.656,1.656,0,0,0,0-2.664l-9.7-9.85a1.85,1.85,0,0,0-1.347-.535H591.627a1.844,1.844,0,0,0-1.347.535l-9.7,9.85a1.651,1.651,0,0,0,0,2.664l9.7,9.585a1.826,1.826,0,0,0,1.347.534h54.418a1.832,1.832,0,0,0,1.347-.534Zm-66.541,71c0.357,0,.538-0.358.538-1.077V125.014a1.84,1.84,0,0,0-.538-1.347L575.733,108.85a1.685,1.685,0,0,0-2.694,0l-4.58,4.849a1.821,1.821,0,0,0-.539,1.347v83.513a1.979,1.979,0,0,0,.943,1.886,1.61,1.61,0,0,0,2.021-.539Zm99.135-2.963a1.678,1.678,0,0,0-1.885,1.911v19.371a1.665,1.665,0,0,0,1.885,1.886h19.666q1.617,0,1.617-1.886V179.188c0-1.271-.539-1.911-1.617-1.911H689.685Zm153.861,22.629a1.73,1.73,0,0,0,2.13.539,1.934,1.934,0,0,0,1.065-1.886V114.777a1.852,1.852,0,0,0-.534-1.347l-4.791-4.85a1.656,1.656,0,0,0-2.664,0L824.108,123.4a1.835,1.835,0,0,0-.535,1.347v54.149a1.827,1.827,0,0,0,.535,1.347ZM846.741,21.3a1.942,1.942,0,0,0-1.065-1.886,1.731,1.731,0,0,0-2.13.539L824.108,39.884a1.834,1.834,0,0,0-.535,1.347v49.03a1.827,1.827,0,0,0,.535,1.347l14.644,14.817a1.651,1.651,0,0,0,2.664,0l4.791-5.118a1.846,1.846,0,0,0,.534-1.347V21.3Zm-47.414,80.011a1.83,1.83,0,0,0,.539-1.347V43.117a1.669,1.669,0,0,0-1.886-1.886H778.045a1.667,1.667,0,0,0-1.886,1.886V99.96a1.815,1.815,0,0,0,.539,1.347l9.968,9.967a1.68,1.68,0,0,0,2.694,0Zm42.3-83.551a1.732,1.732,0,0,0,.539-2.13,1.942,1.942,0,0,0-1.886-1.065H736.827a1.671,1.671,0,0,0-1.751,1.065,2.116,2.116,0,0,0,.4,2.13l19.936,19.439a1.826,1.826,0,0,0,1.347.535H820.61a1.836,1.836,0,0,0,1.347-.535ZM753.26,41.231a1.853,1.853,0,0,0-.534-1.347L733.287,19.949a1.733,1.733,0,0,0-2.13-.539,1.936,1.936,0,0,0-1.065,1.886V99.96a1.827,1.827,0,0,0,.535,1.347l4.79,5.118a1.652,1.652,0,0,0,2.665,0l14.644-14.817a1.846,1.846,0,0,0,.534-1.347V41.231ZM752.726,180.24a1.846,1.846,0,0,0,.534-1.347V124.744a1.854,1.854,0,0,0-.534-1.347L738.082,108.58a1.657,1.657,0,0,0-2.665,0l-4.79,4.85a1.833,1.833,0,0,0-.535,1.347v83.782a1.928,1.928,0,0,0,1.065,1.886,1.732,1.732,0,0,0,2.13-.539Zm230.862-4.849a1.83,1.83,0,0,0,.539-1.347v-49.03a1.837,1.837,0,0,0-.539-1.347l-14.64-14.817a1.651,1.651,0,0,0-2.66,0l-4.791,4.58a1.82,1.82,0,0,0-.538,1.347V193.71a1.694,1.694,0,0,0,.93,1.751,1.775,1.775,0,0,0,2-.673Zm68.962,19.4a1.628,1.628,0,0,0,0-2.425l-14.54-14.547a1.878,1.878,0,0,0-1.36-.539H987.1a1.851,1.851,0,0,0-1.356.539l-19.666,19.4a1.755,1.755,0,0,0-.539,2.155,1.924,1.924,0,0,0,1.886,1.078h78.936a1.8,1.8,0,0,0,1.34-.539Zm9.7-9.7a1.822,1.822,0,0,0,.54-1.347V114.777a1.83,1.83,0,0,0-.54-1.347l-5.05-4.58a1.606,1.606,0,0,0-2.4,0l-14.64,14.817a1.83,1.83,0,0,0-.54,1.347v49.03a1.823,1.823,0,0,0,.54,1.347l14.64,14.817q1.065,1.352,2.4,0Zm0-83.782a1.823,1.823,0,0,0,.54-1.347V31.533a1.83,1.83,0,0,0-.54-1.347l-5.05-5.119a1.607,1.607,0,0,0-2.4,0l-14.64,14.817a1.83,1.83,0,0,0-.54,1.347v49.03a1.823,1.823,0,0,0,.54,1.347l14.64,14.817q1.065,1.352,2.4,0Zm-9.7-78.664a1.682,1.682,0,0,0,0-2.694l-4.85-4.58a1.816,1.816,0,0,0-1.34-.539H967.424a1.93,1.93,0,0,0-1.886,1.078,1.754,1.754,0,0,0,.539,2.155l19.666,19.4A1.835,1.835,0,0,0,987.1,38h49.551a1.862,1.862,0,0,0,1.36-.539ZM983.588,91.608a1.83,1.83,0,0,0,.539-1.347V41.231a1.837,1.837,0,0,0-.539-1.347l-19.7-19.935a1.581,1.581,0,0,0-2-.539,1.994,1.994,0,0,0-.93,1.886V99.96a1.814,1.814,0,0,0,.538,1.347l4.791,5.118a1.647,1.647,0,0,0,2.66,0Zm196.392,108.3a1.755,1.755,0,0,0,2.15.539,1.925,1.925,0,0,0,1.08-1.886V115.046a1.83,1.83,0,0,0-.54-1.347l-4.85-4.849a1.629,1.629,0,0,0-2.42,0l-14.82,14.817a1.83,1.83,0,0,0-.54,1.347v54.149c0,0.719.18,1.077,0.54,1.077Zm3.23-178.341a1.933,1.933,0,0,0-1.08-1.886,1.756,1.756,0,0,0-2.15.539l-19.4,19.666a1.83,1.83,0,0,0-.54,1.347v49.3a1.823,1.823,0,0,0,.54,1.347l14.82,14.547c0.71,0.9,1.52.9,2.42,0l4.85-4.849a1.823,1.823,0,0,0,.54-1.347V21.565Zm-5.39-3.54a1.921,1.921,0,0,0,.67-2.13,1.664,1.664,0,0,0-1.75-1.065h-88.9a1.919,1.919,0,0,0-1.88,1.065,1.711,1.711,0,0,0,.54,2.13l19.93,19.439a1.836,1.836,0,0,0,1.35.535h49.03a1.852,1.852,0,0,0,1.35-.535Zm-73.28,23.206a1.862,1.862,0,0,0-.53-1.347l-19.67-19.666a1.608,1.608,0,0,0-2.02-.539,1.987,1.987,0,0,0-.94,1.886v78.664a1.786,1.786,0,0,0,.54,1.347l4.58,4.849a1.676,1.676,0,0,0,2.69,0l14.82-14.547a1.855,1.855,0,0,0,.53-1.347v-49.3Zm66.01,68.006a1.663,1.663,0,0,0,0-2.664l-9.7-9.85a1.852,1.852,0,0,0-1.35-.535h-54.42a1.813,1.813,0,0,0-1.34.535l-9.7,9.85a1.652,1.652,0,0,0,0,2.664l9.7,9.585a1.8,1.8,0,0,0,1.34.534h54.42a1.835,1.835,0,0,0,1.35-.534Zm-66.54,71c0.35,0,.53-0.358.53-1.077V125.014a1.861,1.861,0,0,0-.53-1.347l-14.82-14.817a1.681,1.681,0,0,0-2.69,0l-4.58,4.849a1.792,1.792,0,0,0-.54,1.347v83.513a1.979,1.979,0,0,0,.94,1.886,1.608,1.608,0,0,0,2.02-.539Zm199.35,4.849a1.822,1.822,0,0,0,.54-1.347V114.777a1.83,1.83,0,0,0-.54-1.347l-5.06-4.85a1.6,1.6,0,0,0-2.39,0L1281.27,123.4a1.831,1.831,0,0,0-.54,1.347v49.3a1.823,1.823,0,0,0,.54,1.347l14.64,14.547c0.7,0.9,1.5.9,2.39,0Zm0-83.782a1.823,1.823,0,0,0,.54-1.347v-68.7a1.83,1.83,0,0,0-.54-1.347l-5.06-4.849a1.6,1.6,0,0,0-2.39,0l-14.64,14.547a1.83,1.83,0,0,0-.54,1.347v49.3a1.823,1.823,0,0,0,.54,1.347l14.64,14.817c0.7,0.9,1.5.9,2.39,0Zm-9.7-78.576a1.711,1.711,0,0,0,0-2.724l-4.85-4.908a1.84,1.84,0,0,0-1.35-.539h-69.23a1.84,1.84,0,0,0-1.35.539l-4.85,4.908a1.711,1.711,0,0,0,0,2.724l14.82,14.989a1.814,1.814,0,0,0,1.35.547h49.56a1.814,1.814,0,0,0,1.35-.547Zm-68.97,68.877a1.823,1.823,0,0,0,.54-1.347v-49.3a1.83,1.83,0,0,0-.54-1.347l-14.64-14.547a1.651,1.651,0,0,0-2.66,0l-4.79,4.849a1.83,1.83,0,0,0-.54,1.347v68.7a1.823,1.823,0,0,0,.54,1.347l4.79,5.118a1.647,1.647,0,0,0,2.66,0Zm0,83.783a1.823,1.823,0,0,0,.54-1.347v-49.3a1.831,1.831,0,0,0-.54-1.347l-14.64-14.817a1.652,1.652,0,0,0-2.66,0l-4.79,4.85a1.83,1.83,0,0,0-.54,1.347v68.965a1.822,1.822,0,0,0,.54,1.347l4.79,4.849a1.647,1.647,0,0,0,2.66,0Zm68.97,19.338a1.661,1.661,0,0,0,0-2.454l-14.55-14.99a1.83,1.83,0,0,0-1.35-.547H1228.2a1.83,1.83,0,0,0-1.35.547l-14.82,14.99c-0.9.909-.9,1.73,0,2.454l4.85,5.177a1.823,1.823,0,0,0,1.35.539h69.23a1.823,1.823,0,0,0,1.35-.539Z"/>
  <circle class="cls-2" cx="113" cy="106" r="103"/>
</svg>
